<svg class="svg-icon" style="width: 1em; height: 1em;vertical-align: middle;fill: currentColor;overflow: hidden;" viewBox="0 0 1024 1024" version="1.1" xmlns="http://www.w3.org/2000/svg"><path d="M757 435.6h-16.9V244.5c0-81.4-60.1-147.5-134-147.5H413.6c-73.9 0-134 66.2-134 147.5V357c0 13.3 10.7 24 24 24s24-10.7 24-24V244.5c0-54.9 38.6-99.5 86-99.5h192.5c47.4 0 86 44.7 86 99.5v191.1H264.2c-49.6 0-90 40.4-90 90v309c0 49.6 40.4 90 90 90H757c49.6 0 90-40.4 90-90v-309c0-49.6-40.4-90-90-90z m42 399c0 23.2-18.8 42-42 42H264.2c-23.2 0-42-18.8-42-42v-309c0-23.2 18.8-42 42-42H757c23.2 0 42 18.8 42 42v309z" fill="#AAAAAA" /><path d="M511.8 528.7c-43.3 0-78.5 35.2-78.5 78.5 0 36.6 25.2 67.5 59.2 76.1v136.1c0 11 9 20 20 20s20-9 20-20V682.9c33.2-9.1 57.7-39.6 57.7-75.7 0.1-43.3-35.1-78.5-78.4-78.5z m0 117c-21.2 0-38.5-17.3-38.5-38.5s17.3-38.5 38.5-38.5 38.5 17.3 38.5 38.5-17.2 38.5-38.5 38.5z" fill="#AAAAAA" /></svg>